<svg id="Camada_1" data-name="Camada 1" xmlns="http://www.w3.org/2000/svg" viewBox="0 0 190.95 23.55"><defs><style>.cls-1{fill:#fff;}.cls-2{isolation:isolate;}.cls-3{font-size:17.52px;fill:#3cb054;font-family:Mark-Medium, Mark-Medium;}.cls-4{letter-spacing:0em;}.cls-5{letter-spacing:-0.01em;}.cls-6{letter-spacing:0em;}.cls-7{letter-spacing:0.01em;}.cls-8{letter-spacing:-0.02em;}</style></defs><title>logo</title><path class="cls-1" d="M12.1,26.3h-.8A11.23,11.23,0,0,1,0,15v-.3H0V2.8H0c3.8-.1,13.1.8,18.2,7.9a11.34,11.34,0,0,1,1.3,10.7h0a7.62,7.62,0,0,1-3.6,3.9c2.3-9-2.2-16.4-11.7-19C11,9.1,16.6,18.8,12.1,26.3Z" transform="translate(0 -2.75)"/><path class="cls-1" d="M39.4,13.7a4.32,4.32,0,0,1-4.3,4.5,3.23,3.23,0,0,1-2.7-1.3v4.6H30.5V9.4h1.9v1a3.23,3.23,0,0,1,2.7-1.3A4.4,4.4,0,0,1,39.4,13.7Zm-7.1,0a2.61,2.61,0,1,0,5.2,0,2.63,2.63,0,0,0-2.6-2.8A2.58,2.58,0,0,0,32.3,13.7Z" transform="translate(0 -2.75)"/><path class="cls-1" d="M49.5,13.7v.7H43.1a2.49,2.49,0,0,0,2.6,2.2,3.84,3.84,0,0,0,2.5-.9l.9,1.3a5.15,5.15,0,0,1-3.5,1.2,4.23,4.23,0,0,1-4.4-4.5,4.2,4.2,0,0,1,4.3-4.5C47.8,9.2,49.5,11,49.5,13.7Zm-6.4-.8h4.5a2.19,2.19,0,0,0-2.2-2.1A2.22,2.22,0,0,0,43.1,12.9Z" transform="translate(0 -2.75)"/><path class="cls-1" d="M59.6,13.7v.7H53.2a2.49,2.49,0,0,0,2.6,2.2,3.84,3.84,0,0,0,2.5-.9l.9,1.3a5.15,5.15,0,0,1-3.5,1.2,4.23,4.23,0,0,1-4.4-4.5,4.2,4.2,0,0,1,4.3-4.5C57.9,9.2,59.6,11,59.6,13.7Zm-6.4-.8h4.5a2.19,2.19,0,0,0-2.2-2.1A2.22,2.22,0,0,0,53.2,12.9Z" transform="translate(0 -2.75)"/><path class="cls-1" d="M67.7,9.4l-.5,1.9a3.53,3.53,0,0,0-1.4-.3,2.05,2.05,0,0,0-2.1,2.3V18H61.8V9.4h1.9v1a2.91,2.91,0,0,1,2.5-1.2A3.42,3.42,0,0,1,67.7,9.4Z" transform="translate(0 -2.75)"/><path class="cls-1" d="M76.4,10.5l-1.2,1.3a2.72,2.72,0,0,0-2.1-.9,2.56,2.56,0,0,0-2.5,2.8,2.62,2.62,0,0,0,2.5,2.8,3.12,3.12,0,0,0,2.1-.9l1.2,1.3a4.16,4.16,0,0,1-3.2,1.4,4.36,4.36,0,0,1-4.5-4.5,4.36,4.36,0,0,1,4.5-4.5A3.71,3.71,0,0,1,76.4,10.5Z" transform="translate(0 -2.75)"/><path class="cls-1" d="M87,13.7a4.6,4.6,0,0,1-9.2,0,4.5,4.5,0,0,1,4.6-4.5A4.44,4.44,0,0,1,87,13.7Zm-7.4,0a2.71,2.71,0,0,0,2.7,2.8A2.65,2.65,0,0,0,85,13.7a2.7,2.7,0,1,0-5.4,0Z" transform="translate(0 -2.75)"/><path class="cls-1" d="M91.6,6.4a1.3,1.3,0,0,1-2.6,0,1.32,1.32,0,0,1,1.3-1.3A1.26,1.26,0,0,1,91.6,6.4ZM89.3,18V9.4h1.9V18Z" transform="translate(0 -2.75)"/><path class="cls-1" d="M102.2,12.6V18h-1.9V13.2c0-1.4-.7-2.3-2-2.3a2.13,2.13,0,0,0-2.2,2.3V18H94.2V9.4H96v1.1a3.15,3.15,0,0,1,2.6-1.3A3.36,3.36,0,0,1,102.2,12.6Z" transform="translate(0 -2.75)"/><g class="cls-2"><text class="cls-3" transform="translate(107.6 14.89)">uni<tspan class="cls-4" x="25.77" y="0">v</tspan><tspan x="34.99" y="0">e</tspan><tspan class="cls-5" x="44.8" y="0">r</tspan><tspan class="cls-6" x="52.15" y="0">si</tspan><tspan class="cls-7" x="65.71" y="0">t</tspan><tspan class="cls-8" x="73.84" y="0">y</tspan></text></g></svg>