<svg id="Camada_1" data-name="Camada 1" xmlns="http://www.w3.org/2000/svg" viewBox="0 0 193.88 23.51"><defs><style>.cls-1{fill:#fff;}.cls-2{isolation:isolate;}.cls-3{fill:#3cb054;}</style></defs><title>logo</title><path class="cls-1" d="M12.1,26.3h-.8A11.23,11.23,0,0,1,0,15v-.3H0V2.8H0c3.8-.1,13.1.8,18.2,7.9a11.34,11.34,0,0,1,1.3,10.7h0a7.62,7.62,0,0,1-3.6,3.9c2.3-9-2.2-16.4-11.7-19C11,9.1,16.6,18.8,12.1,26.3Z" transform="translate(0 -2.79)"/><path class="cls-1" d="M39.4,13.7a4.32,4.32,0,0,1-4.3,4.5,3.23,3.23,0,0,1-2.7-1.3v4.6H30.5V9.4h1.9v1a3.23,3.23,0,0,1,2.7-1.3A4.4,4.4,0,0,1,39.4,13.7Zm-7.1,0a2.61,2.61,0,1,0,5.2,0,2.63,2.63,0,0,0-2.6-2.8A2.58,2.58,0,0,0,32.3,13.7Z" transform="translate(0 -2.79)"/><path class="cls-1" d="M49.5,13.7v.7H43.1a2.49,2.49,0,0,0,2.6,2.2,3.84,3.84,0,0,0,2.5-.9l.9,1.3a5.15,5.15,0,0,1-3.5,1.2,4.23,4.23,0,0,1-4.4-4.5,4.2,4.2,0,0,1,4.3-4.5C47.8,9.2,49.5,11,49.5,13.7Zm-6.4-.8h4.5a2.19,2.19,0,0,0-2.2-2.1A2.22,2.22,0,0,0,43.1,12.9Z" transform="translate(0 -2.79)"/><path class="cls-1" d="M59.6,13.7v.7H53.2a2.49,2.49,0,0,0,2.6,2.2,3.84,3.84,0,0,0,2.5-.9l.9,1.3a5.15,5.15,0,0,1-3.5,1.2,4.23,4.23,0,0,1-4.4-4.5,4.2,4.2,0,0,1,4.3-4.5C57.9,9.2,59.6,11,59.6,13.7Zm-6.4-.8h4.5a2.19,2.19,0,0,0-2.2-2.1A2.22,2.22,0,0,0,53.2,12.9Z" transform="translate(0 -2.79)"/><path class="cls-1" d="M67.7,9.4l-.5,1.9a3.53,3.53,0,0,0-1.4-.3,2.05,2.05,0,0,0-2.1,2.3V18H61.8V9.4h1.9v1a2.91,2.91,0,0,1,2.5-1.2A3.42,3.42,0,0,1,67.7,9.4Z" transform="translate(0 -2.79)"/><path class="cls-1" d="M76.4,10.5l-1.2,1.3a2.72,2.72,0,0,0-2.1-.9,2.56,2.56,0,0,0-2.5,2.8,2.62,2.62,0,0,0,2.5,2.8,3.12,3.12,0,0,0,2.1-.9l1.2,1.3a4.16,4.16,0,0,1-3.2,1.4,4.36,4.36,0,0,1-4.5-4.5,4.36,4.36,0,0,1,4.5-4.5A3.71,3.71,0,0,1,76.4,10.5Z" transform="translate(0 -2.79)"/><path class="cls-1" d="M87,13.7a4.6,4.6,0,0,1-9.2,0,4.5,4.5,0,0,1,4.6-4.5A4.44,4.44,0,0,1,87,13.7Zm-7.4,0a2.71,2.71,0,0,0,2.7,2.8A2.65,2.65,0,0,0,85,13.7a2.7,2.7,0,1,0-5.4,0Z" transform="translate(0 -2.79)"/><path class="cls-1" d="M91.6,6.4a1.3,1.3,0,0,1-2.6,0,1.32,1.32,0,0,1,1.3-1.3A1.26,1.26,0,0,1,91.6,6.4ZM89.3,18V9.4h1.9V18Z" transform="translate(0 -2.79)"/><path class="cls-1" d="M102.2,12.6V18h-1.9V13.2c0-1.4-.7-2.3-2-2.3a2.13,2.13,0,0,0-2.2,2.3V18H94.2V9.4H96v1.1a3.15,3.15,0,0,1,2.6-1.3A3.36,3.36,0,0,1,102.2,12.6Z" transform="translate(0 -2.79)"/><g class="cls-2"><path class="cls-3" d="M114.3,17.7c-2.9,0-5.2-1.65-5.2-5.05V5.22h2V12.5c0,2.34,1.32,3.3,3.22,3.3s3.22-1,3.22-3.3V5.22h2v7.43C119.5,16.05,117.2,17.7,114.3,17.7Z" transform="translate(0 -2.79)"/><path class="cls-3" d="M130.24,12.21v5.27H128.4V12.81c0-1.41-.72-2.2-2-2.2a2.08,2.08,0,0,0-2.17,2.22v4.65h-1.84V9.09h1.82v1a3,3,0,0,1,2.58-1.24A3.23,3.23,0,0,1,130.24,12.21Z" transform="translate(0 -2.79)"/><path class="cls-3" d="M135.23,6.19a1.26,1.26,0,0,1-1.3,1.28,1.24,1.24,0,0,1-1.28-1.28,1.26,1.26,0,0,1,1.28-1.3A1.28,1.28,0,0,1,135.23,6.19ZM133,17.48V9.09h1.84v8.39Z" transform="translate(0 -2.79)"/><path class="cls-3" d="M139.87,17.48,136.5,9.09h2L141,15.58l2.48-6.49h1.95L142,17.48Z" transform="translate(0 -2.79)"/><path class="cls-3" d="M154.49,13.28a5.63,5.63,0,0,1,0,.68h-6.2a2.37,2.37,0,0,0,2.5,2.14,4,4,0,0,0,2.43-.88l.91,1.3a5.05,5.05,0,0,1-3.45,1.18,4.13,4.13,0,0,1-4.29-4.41,4.09,4.09,0,0,1,4.18-4.41C152.86,8.87,154.49,10.66,154.49,13.28Zm-6.23-.71h4.35a2.12,2.12,0,0,0-2.13-2.07A2.16,2.16,0,0,0,148.26,12.57Z" transform="translate(0 -2.79)"/><path class="cls-3" d="M162.42,9.11,162,10.92a3.26,3.26,0,0,0-1.39-.31,2,2,0,0,0-2,2.25v4.62h-1.83V9.09h1.81V10A2.79,2.79,0,0,1,161,8.87,3.66,3.66,0,0,1,162.42,9.11Z" transform="translate(0 -2.79)"/><path class="cls-3" d="M167.23,10.47c-1,0-1.59.4-1.59,1s.61.75,1.38.87l.87.13c1.83.27,2.92,1,2.92,2.48,0,1.61-1.4,2.74-3.82,2.74a6.17,6.17,0,0,1-3.6-1.08l.85-1.37a4.22,4.22,0,0,0,2.77.86c1.26,0,1.91-.39,1.91-1s-.45-.79-1.45-.93l-.88-.11c-1.87-.25-2.85-1.1-2.85-2.46,0-1.66,1.33-2.69,3.47-2.69a6.38,6.38,0,0,1,3.4.88l-.79,1.43A5.48,5.48,0,0,0,167.23,10.47Z" transform="translate(0 -2.79)"/><path class="cls-3" d="M175.17,6.19a1.26,1.26,0,0,1-1.3,1.28,1.24,1.24,0,0,1-1.28-1.28,1.26,1.26,0,0,1,1.28-1.3A1.28,1.28,0,0,1,175.17,6.19ZM173,17.48V9.09h1.84v8.39Z" transform="translate(0 -2.79)"/><path class="cls-3" d="M180.18,10.75v3.65c0,1.12.6,1.57,1.33,1.57a3.36,3.36,0,0,0,1.69-.57l.73,1.46a4.51,4.51,0,0,1-2.58.83c-1.9,0-3-1-3-3.26V10.75h-1.67V9.09h1.67V6.55h1.84V9.09h3.21v1.66Z" transform="translate(0 -2.79)"/><path class="cls-3" d="M185.22,21l3-5.28L184.5,9.09h2.06l2.7,4.82,2.6-4.82h2L187.25,21Z" transform="translate(0 -2.79)"/></g></svg>