<?xml version="1.0" encoding="utf-8"?>
<!-- Generator: Adobe Illustrator 21.0.0, SVG Export Plug-In . SVG Version: 6.00 Build 0)  -->
<svg version="1.1" id="Camada_1" xmlns="http://www.w3.org/2000/svg" xmlns:xlink="http://www.w3.org/1999/xlink" x="0px" y="0px"
	 viewBox="0 0 195.2 26.3" style="enable-background:new 0 0 195.2 26.3;" xml:space="preserve">
<style type="text/css">
	.st0{fill:#FFFFFF;}
	.st1{enable-background:new    ;}
</style>
<path class="st0" d="M12.1,26.3c-0.3,0-0.6,0-0.8,0C5,26.3,0,21.3,0,15v-0.1v-0.2l0,0V2.8l0,0c3.8-0.1,13.1,0.8,18.2,7.9
	c2.2,3.1,2.7,7.1,1.3,10.7l0,0c-0.7,1.7-2,3.1-3.6,3.9c2.3-9-2.2-16.4-11.7-19C11,9.1,16.6,18.8,12.1,26.3z"/>
<path class="st0" d="M39.4,13.7c0,2.6-1.9,4.5-4.3,4.5c-1.2,0-2.1-0.5-2.7-1.3v4.6h-1.9V9.4h1.9v1c0.6-0.8,1.5-1.3,2.7-1.3
	C37.5,9.2,39.4,11,39.4,13.7z M32.3,13.7c0,1.6,1.1,2.8,2.6,2.8c1.6,0,2.6-1.3,2.6-2.8s-1-2.8-2.6-2.8S32.3,12.1,32.3,13.7z"/>
<path class="st0" d="M49.5,13.7c0,0.2,0,0.5,0,0.7h-6.4c0.2,1.5,1.4,2.2,2.6,2.2c0.9,0,1.8-0.3,2.5-0.9l0.9,1.3
	c-1.1,0.9-2.2,1.2-3.5,1.2c-2.6,0-4.4-1.8-4.4-4.5s1.8-4.5,4.3-4.5C47.8,9.2,49.5,11,49.5,13.7z M43.1,12.9h4.5
	c-0.2-1.3-1-2.1-2.2-2.1C44,10.8,43.3,11.7,43.1,12.9z"/>
<path class="st0" d="M59.6,13.7c0,0.2,0,0.5,0,0.7h-6.4c0.2,1.5,1.4,2.2,2.6,2.2c0.9,0,1.8-0.3,2.5-0.9l0.9,1.3
	c-1.1,0.9-2.2,1.2-3.5,1.2c-2.6,0-4.4-1.8-4.4-4.5s1.8-4.5,4.3-4.5C57.9,9.2,59.6,11,59.6,13.7z M53.2,12.9h4.5
	c-0.2-1.3-1-2.1-2.2-2.1C54.1,10.8,53.4,11.7,53.2,12.9z"/>
<path class="st0" d="M67.7,9.4l-0.5,1.9c-0.4-0.2-1-0.3-1.4-0.3c-1.2,0-2.1,0.8-2.1,2.3V18h-1.9V9.4h1.9v1c0.6-0.8,1.4-1.2,2.5-1.2
	C66.8,9.2,67.3,9.2,67.7,9.4z"/>
<path class="st0" d="M76.4,10.5l-1.2,1.3c-0.6-0.6-1.2-0.9-2.1-0.9c-1.4,0-2.5,1.1-2.5,2.8c0,1.6,1.1,2.8,2.5,2.8
	c0.8,0,1.6-0.4,2.1-0.9l1.2,1.3c-0.8,0.9-1.9,1.4-3.2,1.4c-2.7,0-4.5-2-4.5-4.5s1.8-4.5,4.5-4.5C74.5,9.2,75.6,9.6,76.4,10.5z"/>
<path class="st0" d="M87,13.7c0,2.6-2,4.5-4.6,4.5c-2.7,0-4.6-2-4.6-4.5s2-4.5,4.6-4.5C85,9.2,87,11.1,87,13.7z M79.6,13.7
	c0,1.6,1.2,2.8,2.7,2.8s2.7-1.1,2.7-2.8c0-1.6-1.2-2.8-2.7-2.8C80.8,10.9,79.6,12.1,79.6,13.7z"/>
<path class="st0" d="M91.6,6.4c0,0.8-0.6,1.3-1.3,1.3c-0.8,0-1.3-0.6-1.3-1.3s0.6-1.3,1.3-1.3C91,5.1,91.6,5.6,91.6,6.4z M89.3,18
	V9.4h1.9V18H89.3z"/>
<path class="st0" d="M102.2,12.6V18h-1.9v-4.8c0-1.4-0.7-2.3-2-2.3c-1.2,0-2.2,0.8-2.2,2.3V18h-1.9V9.4H96v1.1
	c0.7-1,1.8-1.3,2.6-1.3C100.7,9.2,102.2,10.6,102.2,12.6z"/>
<g class="st1">
	<g>
		<path d="M114.3,17.7c-2.9,0-5.2-1.6-5.2-5.1V5.2h2v7.3c0,2.3,1.3,3.3,3.2,3.3s3.2-1,3.2-3.3V5.2h2v7.4
			C119.5,16.1,117.2,17.7,114.3,17.7z"/>
		<path d="M130.2,12.2v5.3h-1.8v-4.7c0-1.4-0.7-2.2-2-2.2c-1.2,0-2.2,0.8-2.2,2.2v4.7h-1.8V9.1h1.8v1c0.7-1,1.7-1.2,2.6-1.2
			C128.8,8.9,130.2,10.2,130.2,12.2z"/>
		<path d="M135.2,6.2c0,0.7-0.6,1.3-1.3,1.3c-0.7,0-1.3-0.5-1.3-1.3c0-0.7,0.5-1.3,1.3-1.3C134.7,4.9,135.2,5.5,135.2,6.2z
			 M133,17.5V9.1h1.8v8.4H133z"/>
		<path d="M139.9,17.5l-3.4-8.4h2l2.5,6.5l2.5-6.5h1.9l-3.4,8.4H139.9z"/>
		<path d="M154.5,13.3c0,0.2,0,0.5,0,0.7h-6.2c0.2,1.5,1.3,2.1,2.5,2.1c0.8,0,1.7-0.3,2.4-0.9l0.9,1.3c-1,0.9-2.2,1.2-3.5,1.2
			c-2.5,0-4.3-1.8-4.3-4.4c0-2.6,1.7-4.4,4.2-4.4C152.9,8.9,154.5,10.7,154.5,13.3z M148.3,12.6h4.4c-0.2-1.3-1-2.1-2.1-2.1
			C149.2,10.5,148.4,11.3,148.3,12.6z"/>
		<path d="M162.4,9.1l-0.4,1.8c-0.4-0.2-0.9-0.3-1.4-0.3c-1.2,0-2,0.8-2,2.3v4.6h-1.8V9.1h1.8V10c0.6-0.8,1.4-1.2,2.4-1.2
			C161.6,8.9,162,8.9,162.4,9.1z"/>
		<path d="M167.2,10.5c-1,0-1.6,0.4-1.6,1s0.6,0.8,1.4,0.9l0.9,0.1c1.8,0.3,2.9,1,2.9,2.5c0,1.6-1.4,2.7-3.8,2.7
			c-0.9,0-2.4-0.2-3.6-1.1l0.8-1.4c0.6,0.5,1.4,0.9,2.8,0.9c1.3,0,1.9-0.4,1.9-1c0-0.5-0.4-0.8-1.5-0.9l-0.9-0.1
			c-1.9-0.3-2.8-1.1-2.8-2.5c0-1.7,1.3-2.7,3.5-2.7c1.3,0,2.5,0.3,3.4,0.9l-0.8,1.4C169.3,10.9,168.3,10.5,167.2,10.5z"/>
		<path d="M175.2,6.2c0,0.7-0.6,1.3-1.3,1.3c-0.7,0-1.3-0.5-1.3-1.3c0-0.7,0.5-1.3,1.3-1.3C174.6,4.9,175.2,5.5,175.2,6.2z
			 M173,17.5V9.1h1.8v8.4H173z"/>
		<path d="M180.2,10.8v3.7c0,1.1,0.6,1.6,1.3,1.6c0.6,0,1.2-0.3,1.7-0.6l0.7,1.5c-0.7,0.5-1.5,0.8-2.6,0.8c-1.9,0-3-1-3-3.3v-3.7
			h-1.7V9.1h1.7V6.5h1.8v2.5h3.2v1.7H180.2z"/>
		<path d="M185.2,21l3-5.3l-3.7-6.7h2.1l2.7,4.8l2.6-4.8h2L187.3,21H185.2z"/>
	</g>
	<g>
	</g>
</g>
</svg>
