<?xml version="1.0" encoding="utf-8"?>
<!-- Generator: Adobe Illustrator 21.0.0, SVG Export Plug-In . SVG Version: 6.00 Build 0)  -->
<svg version="1.1" id="Camada_1" xmlns="http://www.w3.org/2000/svg" xmlns:xlink="http://www.w3.org/1999/xlink" x="0px" y="0px"
	 viewBox="0 0 191 26.3" style="enable-background:new 0 0 191 26.3;" xml:space="preserve">
<style type="text/css">
	.st0{fill:#FFFFFF;}
	.st1{fill:rgba(255,255,255,0.41);}
</style>
<path class="st0" d="M12.1,26.3c-0.3,0-0.6,0-0.8,0C5,26.3,0,21.3,0,15v-0.1v-0.2l0,0V2.8l0,0c3.8-0.1,13.1,0.8,18.2,7.9
	c2.2,3.1,2.7,7.1,1.3,10.7l0,0c-0.7,1.7-2,3.1-3.6,3.9c2.3-9-2.2-16.4-11.7-19C11,9.1,16.6,18.8,12.1,26.3z"/>
<path class="st0" d="M39.4,13.7c0,2.6-1.9,4.5-4.3,4.5c-1.2,0-2.1-0.5-2.7-1.3v4.6h-1.9V9.4h1.9v1c0.6-0.8,1.5-1.3,2.7-1.3
	C37.5,9.2,39.4,11,39.4,13.7z M32.3,13.7c0,1.6,1.1,2.8,2.6,2.8c1.6,0,2.6-1.3,2.6-2.8s-1-2.8-2.6-2.8S32.3,12.1,32.3,13.7z"/>
<path class="st0" d="M49.5,13.7c0,0.2,0,0.5,0,0.7h-6.4c0.2,1.5,1.4,2.2,2.6,2.2c0.9,0,1.8-0.3,2.5-0.9l0.9,1.3
	c-1.1,0.9-2.2,1.2-3.5,1.2c-2.6,0-4.4-1.8-4.4-4.5s1.8-4.5,4.3-4.5C47.8,9.2,49.5,11,49.5,13.7z M43.1,12.9h4.5
	c-0.2-1.3-1-2.1-2.2-2.1C44,10.8,43.3,11.7,43.1,12.9z"/>
<path class="st0" d="M59.6,13.7c0,0.2,0,0.5,0,0.7h-6.4c0.2,1.5,1.4,2.2,2.6,2.2c0.9,0,1.8-0.3,2.5-0.9l0.9,1.3
	c-1.1,0.9-2.2,1.2-3.5,1.2c-2.6,0-4.4-1.8-4.4-4.5s1.8-4.5,4.3-4.5C57.9,9.2,59.6,11,59.6,13.7z M53.2,12.9h4.5
	c-0.2-1.3-1-2.1-2.2-2.1C54.1,10.8,53.4,11.7,53.2,12.9z"/>
<path class="st0" d="M67.7,9.4l-0.5,1.9c-0.4-0.2-1-0.3-1.4-0.3c-1.2,0-2.1,0.8-2.1,2.3V18h-1.9V9.4h1.9v1c0.6-0.8,1.4-1.2,2.5-1.2
	C66.8,9.2,67.3,9.2,67.7,9.4z"/>
<path class="st0" d="M76.4,10.5l-1.2,1.3c-0.6-0.6-1.2-0.9-2.1-0.9c-1.4,0-2.5,1.1-2.5,2.8c0,1.6,1.1,2.8,2.5,2.8
	c0.8,0,1.6-0.4,2.1-0.9l1.2,1.3c-0.8,0.9-1.9,1.4-3.2,1.4c-2.7,0-4.5-2-4.5-4.5s1.8-4.5,4.5-4.5C74.5,9.2,75.6,9.6,76.4,10.5z"/>
<path class="st0" d="M87,13.7c0,2.6-2,4.5-4.6,4.5c-2.7,0-4.6-2-4.6-4.5s2-4.5,4.6-4.5C85,9.2,87,11.1,87,13.7z M79.6,13.7
	c0,1.6,1.2,2.8,2.7,2.8s2.7-1.1,2.7-2.8c0-1.6-1.2-2.8-2.7-2.8C80.8,10.9,79.6,12.1,79.6,13.7z"/>
<path class="st0" d="M91.6,6.4c0,0.8-0.6,1.3-1.3,1.3c-0.8,0-1.3-0.6-1.3-1.3s0.6-1.3,1.3-1.3C91,5.1,91.6,5.6,91.6,6.4z M89.3,18
	V9.4h1.9V18H89.3z"/>
<path class="st0" d="M102.2,12.6V18h-1.9v-4.8c0-1.4-0.7-2.3-2-2.3c-1.2,0-2.2,0.8-2.2,2.3V18h-1.9V9.4H96v1.1
	c0.7-1,1.8-1.3,2.6-1.3C100.7,9.2,102.2,10.6,102.2,12.6z"/>
<path class="st1" d="M112.8,17.9c-2,0-3.9-1.1-3.9-3.8V9.2h1.8v4.7c0,1.6,0.9,2.2,2,2.2s2-0.6,2-2.2V9.2h1.8v4.8
	C116.7,16.8,114.8,17.9,112.8,17.9z"/>
<path class="st1" d="M127.3,12.4v5.3h-1.8V13c0-1.4-0.7-2.2-2-2.2c-1.2,0-2.2,0.8-2.2,2.2v4.7h-1.8V9.2h1.8v1c0.7-1,1.7-1.2,2.6-1.2
	C125.9,9,127.3,10.4,127.3,12.4z"/>
<path class="st1" d="M132.3,6.4c0,0.7-0.6,1.3-1.3,1.3c-0.7,0-1.3-0.5-1.3-1.3c0-0.7,0.5-1.3,1.3-1.3C131.7,5.1,132.3,5.6,132.3,6.4
	z M130.1,17.6V9.2h1.8v8.4H130.1z"/>
<path class="st1" d="M136.9,17.6l-3.4-8.4h2l2.5,6.5l2.5-6.5h1.9l-3.4,8.4H136.9z"/>
<path class="st1" d="M151.6,13.4c0,0.2,0,0.5,0,0.7h-6.2c0.2,1.5,1.3,2.1,2.5,2.1c0.8,0,1.7-0.3,2.4-0.9l0.9,1.3
	c-1,0.9-2.2,1.2-3.5,1.2c-2.5,0-4.3-1.8-4.3-4.4c0-2.6,1.7-4.4,4.2-4.4C149.9,9,151.6,10.8,151.6,13.4z M145.3,12.7h4.4
	c-0.2-1.3-1-2.1-2.1-2.1C146.3,10.7,145.5,11.5,145.3,12.7z"/>
<path class="st1" d="M159.5,9.3l-0.4,1.8c-0.4-0.2-0.9-0.3-1.4-0.3c-1.2,0-2,0.8-2,2.3v4.6h-1.8V9.2h1.8v0.9
	c0.6-0.8,1.4-1.2,2.4-1.2C158.6,9,159.1,9.1,159.5,9.3z"/>
<path class="st1" d="M164.3,10.6c-1,0-1.6,0.4-1.6,1s0.6,0.8,1.4,0.9l0.9,0.1c1.8,0.3,2.9,1,2.9,2.5c0,1.6-1.4,2.7-3.8,2.7
	c-0.9,0-2.4-0.2-3.6-1.1l0.8-1.4c0.6,0.5,1.4,0.9,2.8,0.9c1.3,0,1.9-0.4,1.9-1c0-0.5-0.4-0.8-1.5-0.9l-0.9-0.1
	c-1.9-0.3-2.8-1.1-2.8-2.5c0-1.7,1.3-2.7,3.5-2.7c1.3,0,2.5,0.3,3.4,0.9l-0.8,1.4C166.4,11,165.4,10.6,164.3,10.6z"/>
<path class="st1" d="M172.2,6.4c0,0.7-0.6,1.3-1.3,1.3c-0.7,0-1.3-0.5-1.3-1.3c0-0.7,0.5-1.3,1.3-1.3C171.7,5.1,172.2,5.6,172.2,6.4
	z M170,17.6V9.2h1.8v8.4H170z"/>
<path class="st1" d="M177.3,10.9v3.7c0,1.1,0.6,1.6,1.3,1.6c0.6,0,1.2-0.3,1.7-0.6L181,17c-0.7,0.5-1.5,0.8-2.6,0.8
	c-1.9,0-3-1-3-3.3v-3.7h-1.7V9.2h1.7V6.7h1.8v2.5h3.2v1.7H177.3z"/>
<path class="st1" d="M182.3,21.2l3-5.3l-3.7-6.7h2.1l2.7,4.8l2.6-4.8h2l-6.6,11.9H182.3z"/>
</svg>
